<?xml version="1.0" encoding="UTF-8" standalone="no"?>
<svg
   xmlns:dc="http://purl.org/dc/elements/1.1/"
   xmlns:cc="http://creativecommons.org/ns#"
   xmlns:rdf="http://www.w3.org/1999/02/22-rdf-syntax-ns#"
   xmlns:svg="http://www.w3.org/2000/svg"
   xmlns="http://www.w3.org/2000/svg"
   viewBox="0 0 2560 1440"
   height="1440"
   width="2560"
   xml:space="preserve"
   id="svg2"
   version="1.1"><metadata
     id="metadata8"><rdf:RDF><cc:Work
         rdf:about=""><dc:format>image/svg+xml</dc:format><dc:type
           rdf:resource="http://purl.org/dc/dcmitype/StillImage" /></cc:Work></rdf:RDF></metadata><defs
     id="defs6"><clipPath
       id="clipPath20"
       clipPathUnits="userSpaceOnUse"><path
         id="path18"
         d="M 0,0 H 1920 V 1080 H 0 Z" /></clipPath><clipPath
       id="clipPath38"
       clipPathUnits="userSpaceOnUse"><path
         id="path36"
         d="m 1339.382,940.947 h 486.8433 v 58.74047 H 1339.382 Z" /></clipPath><clipPath
       id="clipPath52"
       clipPathUnits="userSpaceOnUse"><path
         id="path50"
         d="M 0,0 H 1920 V 1080 H 0 Z" /></clipPath><clipPath
       id="clipPath64"
       clipPathUnits="userSpaceOnUse"><path
         id="path62"
         d="m 1342.958,747.0926 h 239.92 v 186.6195 h -239.92 z" /></clipPath><clipPath
       id="clipPath78"
       clipPathUnits="userSpaceOnUse"><path
         id="path76"
         d="M 0,0 H 1920 V 1080 H 0 Z" /></clipPath><clipPath
       id="clipPath122"
       clipPathUnits="userSpaceOnUse"><path
         id="path120"
         d="m 716.5784,940.947 h 486.8433 v 58.74047 H 716.5784 Z" /></clipPath><clipPath
       id="clipPath136"
       clipPathUnits="userSpaceOnUse"><path
         id="path134"
         d="M 0,0 H 1920 V 1080 H 0 Z" /></clipPath><clipPath
       id="clipPath148"
       clipPathUnits="userSpaceOnUse"><path
         id="path146"
         d="m 720.1544,747.0926 h 479.6913 V 933.7121 H 720.1544 Z" /></clipPath><clipPath
       id="clipPath162"
       clipPathUnits="userSpaceOnUse"><path
         id="path160"
         d="m 1586.189,744.5926 h 233 v 185.6595 h -233 z" /></clipPath><clipPath
       id="clipPath176"
       clipPathUnits="userSpaceOnUse"><path
         id="path174"
         d="m 1582.729,747.0926 h 239.92 v 186.6195 h -239.92 z" /></clipPath><clipPath
       id="clipPath186"
       clipPathUnits="userSpaceOnUse"><path
         id="path184"
         d="m 1611.51,776.6932 h 160.0969 v 69.96136 H 1611.51 Z" /></clipPath><clipPath
       id="clipPath196"
       clipPathUnits="userSpaceOnUse"><path
         id="path194"
         d="m 1729.45,839.2165 h 68.3471 v 68.34713 H 1729.45 Z" /></clipPath><clipPath
       id="clipPath206"
       clipPathUnits="userSpaceOnUse"><path
         id="path204"
         d="M 0,0 H 1920 V 1080 H 0 Z" /></clipPath><clipPath
       id="clipPath218"
       clipPathUnits="userSpaceOnUse"><path
         id="path216"
         d="M 96.3027,874.8779 H 583.146 v 58.74047 H 96.3027 Z" /></clipPath><clipPath
       id="clipPath232"
       clipPathUnits="userSpaceOnUse"><path
         id="path230"
         d="M 0,0 H 1920 V 1080 H 0 Z" /></clipPath><clipPath
       id="clipPath244"
       clipPathUnits="userSpaceOnUse"><path
         id="path242"
         d="M 98.0907,813.1617 H 581.358 v 58.74047 H 98.0907 Z" /></clipPath><clipPath
       id="clipPath258"
       clipPathUnits="userSpaceOnUse"><path
         id="path256"
         d="M 0,0 H 1920 V 1080 H 0 Z" /></clipPath><clipPath
       id="clipPath270"
       clipPathUnits="userSpaceOnUse"><path
         id="path268"
         d="M 96.3027,597.6204 H 583.146 v 58.74047 H 96.3027 Z" /></clipPath><clipPath
       id="clipPath284"
       clipPathUnits="userSpaceOnUse"><path
         id="path282"
         d="M 0,0 H 1920 V 1080 H 0 Z" /></clipPath><clipPath
       id="clipPath296"
       clipPathUnits="userSpaceOnUse"><path
         id="path294"
         d="M 339.65,403.766 H 579.57 V 590.3855 H 339.65 Z" /></clipPath><clipPath
       id="clipPath310"
       clipPathUnits="userSpaceOnUse"><path
         id="path308"
         d="m 102.8387,401.766 h 233 v 185.6595 h -233 z" /></clipPath><clipPath
       id="clipPath324"
       clipPathUnits="userSpaceOnUse"><path
         id="path322"
         d="m 99.3787,404.266 h 239.92 v 186.6195 h -239.92 z" /></clipPath><clipPath
       id="clipPath334"
       clipPathUnits="userSpaceOnUse"><path
         id="path332"
         d="m 128.1594,433.8666 h 160.0969 v 69.96136 H 128.1594 Z" /></clipPath><clipPath
       id="clipPath344"
       clipPathUnits="userSpaceOnUse"><path
         id="path342"
         d="m 246.0997,496.3899 h 68.34713 v 68.34713 H 246.0997 Z" /></clipPath><clipPath
       id="clipPath354"
       clipPathUnits="userSpaceOnUse"><path
         id="path352"
         d="M 0,0 H 1920 V 1080 H 0 Z" /></clipPath><clipPath
       id="clipPath366"
       clipPathUnits="userSpaceOnUse"><path
         id="path364"
         d="m 716.5784,597.6204 h 296.072 v 58.74047 h -296.072 z" /></clipPath><clipPath
       id="clipPath380"
       clipPathUnits="userSpaceOnUse"><path
         id="path378"
         d="M 0,0 H 1920 V 1080 H 0 Z" /></clipPath><clipPath
       id="clipPath392"
       clipPathUnits="userSpaceOnUse"><path
         id="path390"
         d="m 720.1544,403.7659 h 288.92 v 186.6195 h -288.92 z" /></clipPath><clipPath
       id="clipPath406"
       clipPathUnits="userSpaceOnUse"><path
         id="path404"
         d="m 1024.392,384.5634 h 194.872 v 291 h -194.872 z" /></clipPath><clipPath
       id="clipPath420"
       clipPathUnits="userSpaceOnUse"><path
         id="path418"
         d="m 1020.932,387.0634 h 201.792 v 291.96 h -201.792 z" /></clipPath><clipPath
       id="clipPath430"
       clipPathUnits="userSpaceOnUse"><path
         id="path428"
         d="m 1054.875,509.7305 h 133.9063 v 58.70277 H 1054.875 Z" /></clipPath><clipPath
       id="clipPath440"
       clipPathUnits="userSpaceOnUse"><path
         id="path438"
         d="m 1146.625,566.6245 h 68.3471 v 68.34713 h -68.3471 z" /></clipPath><clipPath
       id="clipPath450"
       clipPathUnits="userSpaceOnUse"><path
         id="path448"
         d="m 1100.4,401.266 h 102.0742 V 503.1916 H 1100.4 Z" /></clipPath><clipPath
       id="clipPath460"
       clipPathUnits="userSpaceOnUse"><path
         id="path458"
         d="M 0,0 H 1920 V 1080 H 0 Z" /></clipPath><clipPath
       id="clipPath472"
       clipPathUnits="userSpaceOnUse"><path
         id="path470"
         d="m 1531.147,597.6204 h 296.072 v 58.74047 h -296.072 z" /></clipPath><clipPath
       id="clipPath486"
       clipPathUnits="userSpaceOnUse"><path
         id="path484"
         d="M 0,0 H 1920 V 1080 H 0 Z" /></clipPath><clipPath
       id="clipPath498"
       clipPathUnits="userSpaceOnUse"><path
         id="path496"
         d="m 1534.723,403.7659 h 288.92 v 186.6195 h -288.92 z" /></clipPath><clipPath
       id="clipPath512"
       clipPathUnits="userSpaceOnUse"><path
         id="path510"
         d="m 1324.363,385.0634 h 194.872 v 291 h -194.872 z" /></clipPath><clipPath
       id="clipPath526"
       clipPathUnits="userSpaceOnUse"><path
         id="path524"
         d="m 1320.903,387.5634 h 201.792 v 291.96 h -201.792 z" /></clipPath><clipPath
       id="clipPath536"
       clipPathUnits="userSpaceOnUse"><path
         id="path534"
         d="m 1354.845,510.2305 h 133.9063 v 58.70277 H 1354.845 Z" /></clipPath><clipPath
       id="clipPath546"
       clipPathUnits="userSpaceOnUse"><path
         id="path544"
         d="m 1446.595,567.1245 h 68.3471 v 68.34713 h -68.3471 z" /></clipPath><clipPath
       id="clipPath556"
       clipPathUnits="userSpaceOnUse"><path
         id="path554"
         d="m 1400.37,401.766 h 102.0742 V 503.6916 H 1400.37 Z" /></clipPath><clipPath
       id="clipPath566"
       clipPathUnits="userSpaceOnUse"><path
         id="path564"
         d="M 0,0 H 1920 V 1080 H 0 Z" /></clipPath><clipPath
       id="clipPath580"
       clipPathUnits="userSpaceOnUse"><path
         id="path578"
         d="m 79.11674,97.18253 h 522.2152 v 238.5143 H 79.11674 Z" /></clipPath><clipPath
       id="clipPath590"
       clipPathUnits="userSpaceOnUse"><path
         id="path588"
         d="M 0,0 H 1920 V 1080 H 0 Z" /></clipPath><clipPath
       id="clipPath608"
       clipPathUnits="userSpaceOnUse"><path
         id="path606"
         d="M 78.7643,44.67502 H 600.6844 V 95.52918 H 78.7643 Z" /></clipPath><clipPath
       id="clipPath622"
       clipPathUnits="userSpaceOnUse"><path
         id="path620"
         d="M 0,0 H 1920 V 1080 H 0 Z" /></clipPath><clipPath
       id="clipPath634"
       clipPathUnits="userSpaceOnUse"><path
         id="path632"
         d="m 717.8423,253.2938 h 486.8433 v 58.74047 H 717.8423 Z" /></clipPath><clipPath
       id="clipPath648"
       clipPathUnits="userSpaceOnUse"><path
         id="path646"
         d="M 0,0 H 1920 V 1080 H 0 Z" /></clipPath><clipPath
       id="clipPath660"
       clipPathUnits="userSpaceOnUse"><path
         id="path658"
         d="m 721.4183,59.9393 h 239.92 v 186.6195 h -239.92 z" /></clipPath><clipPath
       id="clipPath674"
       clipPathUnits="userSpaceOnUse"><path
         id="path672"
         d="M 0,0 H 1920 V 1080 H 0 Z" /></clipPath><clipPath
       id="clipPath686"
       clipPathUnits="userSpaceOnUse"><path
         id="path684"
         d="m 961.1895,60.43936 h 239.92 v 186.6195 h -239.92 z" /></clipPath><clipPath
       id="clipPath700"
       clipPathUnits="userSpaceOnUse"><path
         id="path698"
         d="M 0,0 H 1920 V 1080 H 0 Z" /></clipPath><clipPath
       id="clipPath712"
       clipPathUnits="userSpaceOnUse"><path
         id="path710"
         d="m 1339.382,254.2938 h 486.8433 v 58.74047 H 1339.382 Z" /></clipPath><clipPath
       id="clipPath726"
       clipPathUnits="userSpaceOnUse"><path
         id="path724"
         d="M 0,0 H 1920 V 1080 H 0 Z" /></clipPath><clipPath
       id="clipPath738"
       clipPathUnits="userSpaceOnUse"><path
         id="path736"
         d="m 1342.958,61.43936 h 159.92 v 186.6195 h -159.92 z" /></clipPath><clipPath
       id="clipPath752"
       clipPathUnits="userSpaceOnUse"><path
         id="path750"
         d="M 0,0 H 1920 V 1080 H 0 Z" /></clipPath><clipPath
       id="clipPath764"
       clipPathUnits="userSpaceOnUse"><path
         id="path762"
         d="m 1502.843,61.43936 h 159.92 v 186.6195 h -159.92 z" /></clipPath><clipPath
       id="clipPath778"
       clipPathUnits="userSpaceOnUse"><path
         id="path776"
         d="M 0,0 H 1920 V 1080 H 0 Z" /></clipPath><clipPath
       id="clipPath790"
       clipPathUnits="userSpaceOnUse"><path
         id="path788"
         d="m 1662.729,61.43936 h 159.92 v 186.6195 h -159.92 z" /></clipPath></defs><g
     transform="matrix(1.3333333,0,0,-1.3333333,0,1440)"
     id="g10"><g
       id="g12" /><g
       id="g14"><g
         clip-path="url(#clipPath20)"
         id="g16"><path
           id="path22"
           style="fill:#ffffff;fill-opacity:1;fill-rule:nonzero;stroke:none"
           d="M 0,0 H 1920 V 1080 H 0 Z" /><g
           transform="matrix(1,0,0,-1,83.72434,1017.39)"
           id="g24"><path
             id="path26"
             style="fill:none;stroke:#000000;stroke-width:1.10000002;stroke-linecap:butt;stroke-linejoin:miter;stroke-miterlimit:4;stroke-dasharray:none;stroke-opacity:1"
             d="M 0,0 H 512 V 288 H 0 Z" /></g><g
           transform="matrix(1,0,0,-1,1347.918,1000.688)"
           id="g28"><path
             id="path30"
             style="fill:none;stroke:#000000;stroke-width:1;stroke-linecap:butt;stroke-linejoin:miter;stroke-miterlimit:4;stroke-dasharray:none;stroke-opacity:1"
             d="M 0,0 H 469.7713 V 60.74047 H 0 Z" /></g></g></g><g
       id="g32"><g
         clip-path="url(#clipPath38)"
         id="g34"><g
           transform="translate(1349,959)"
           id="g40"><text
             id="text44"
             style="font-variant:normal;font-weight:500;font-size:32px;font-family:HelveticaNeue;-inkscape-font-specification:HelveticaNeue-Medium;writing-mode:lr-tb;fill:#000000;fill-opacity:1;fill-rule:nonzero;stroke:none"
             transform="matrix(1,0,0,-1,8.896,0)"><tspan
               id="tspan42"
               y="0"
               x="0 17.792 26.688 49.792 67.584 85.375999 104.928 112.64 131.008"># Heading</tspan></text>
</g></g></g><g
       id="g46"><g
         clip-path="url(#clipPath52)"
         id="g48"><g
           transform="matrix(1,0,0,-1,1347.918,928.752)"
           id="g54"><path
             id="path56"
             style="fill:none;stroke:#000000;stroke-width:1;stroke-linecap:butt;stroke-linejoin:miter;stroke-miterlimit:4;stroke-dasharray:none;stroke-opacity:1"
             d="M 0,0 H 230 V 182.6595 H 0 Z" /></g></g></g><g
       id="g58"><g
         clip-path="url(#clipPath64)"
         id="g60"><g
           transform="translate(1349,908)"
           id="g66"><text
             id="text70"
             style="font-variant:normal;font-weight:500;font-size:20px;font-family:HelveticaNeue;-inkscape-font-specification:HelveticaNeue-Medium;writing-mode:lr-tb;fill:#000000;fill-opacity:1;fill-rule:nonzero;stroke:none"
             transform="matrix(1,0,0,-1,11.12,0)"><tspan
               id="tspan68"
               y="0"
               x="0 14.44 26.299999 37.779999 44.439999 55.560001 67.040001">Content</tspan></text>
</g></g></g><g
       id="g72"><g
         clip-path="url(#clipPath78)"
         id="g74"><g
           transform="matrix(1,0,0,-1,705.2639,1017.39)"
           id="g80"><path
             id="path82"
             style="fill:none;stroke:#000000;stroke-width:1.10000002;stroke-linecap:butt;stroke-linejoin:miter;stroke-miterlimit:4;stroke-dasharray:none;stroke-opacity:1"
             d="M 0,0 H 512 V 288 H 0 Z" /></g><g
           transform="matrix(1,0,0,-1,1326.803,1017.39)"
           id="g84"><path
             id="path86"
             style="fill:none;stroke:#000000;stroke-width:1.10000002;stroke-linecap:butt;stroke-linejoin:miter;stroke-miterlimit:4;stroke-dasharray:none;stroke-opacity:1"
             d="M 0,0 H 512 V 288 H 0 Z" /></g><g
           transform="matrix(1,0,0,-1,83.72437,674.0634)"
           id="g88"><path
             id="path90"
             style="fill:none;stroke:#000000;stroke-width:1.10000002;stroke-linecap:butt;stroke-linejoin:miter;stroke-miterlimit:4;stroke-dasharray:none;stroke-opacity:1"
             d="M 0,0 H 512 V 288 H 0 Z" /></g><g
           transform="matrix(1,0,0,-1,705.2639,674.0634)"
           id="g92"><path
             id="path94"
             style="fill:none;stroke:#000000;stroke-width:1.10000002;stroke-linecap:butt;stroke-linejoin:miter;stroke-miterlimit:4;stroke-dasharray:none;stroke-opacity:1"
             d="M 0,0 H 512 V 288 H 0 Z" /></g><g
           transform="matrix(1,0,0,-1,1326.803,674.0634)"
           id="g96"><path
             id="path98"
             style="fill:none;stroke:#000000;stroke-width:1.10000002;stroke-linecap:butt;stroke-linejoin:miter;stroke-miterlimit:4;stroke-dasharray:none;stroke-opacity:1"
             d="M 0,0 H 512 V 288 H 0 Z" /></g><g
           transform="matrix(1,0,0,-1,83.72437,330.7368)"
           id="g100"><path
             id="path102"
             style="fill:none;stroke:#000000;stroke-width:1.10000002;stroke-linecap:butt;stroke-linejoin:miter;stroke-miterlimit:4;stroke-dasharray:none;stroke-opacity:1"
             d="M 0,0 H 512 V 288 H 0 Z" /></g><g
           transform="matrix(1,0,0,-1,705.2639,330.7368)"
           id="g104"><path
             id="path106"
             style="fill:none;stroke:#000000;stroke-width:1.10000002;stroke-linecap:butt;stroke-linejoin:miter;stroke-miterlimit:4;stroke-dasharray:none;stroke-opacity:1"
             d="M 0,0 H 512 V 288 H 0 Z" /></g><g
           transform="matrix(1,0,0,-1,1326.803,330.7368)"
           id="g108"><path
             id="path110"
             style="fill:none;stroke:#000000;stroke-width:1.10000002;stroke-linecap:butt;stroke-linejoin:miter;stroke-miterlimit:4;stroke-dasharray:none;stroke-opacity:1"
             d="M 0,0 H 512 V 288 H 0 Z" /></g><g
           transform="matrix(1,0,0,-1,725.1144,1000.688)"
           id="g112"><path
             id="path114"
             style="fill:none;stroke:#000000;stroke-width:1;stroke-linecap:butt;stroke-linejoin:miter;stroke-miterlimit:4;stroke-dasharray:none;stroke-opacity:1"
             d="M 0,0 H 469.7713 V 60.74047 H 0 Z" /></g></g></g><g
       id="g116"><g
         clip-path="url(#clipPath122)"
         id="g118"><g
           transform="translate(726,959)"
           id="g124"><text
             id="text128"
             style="font-variant:normal;font-weight:500;font-size:32px;font-family:HelveticaNeue;-inkscape-font-specification:HelveticaNeue-Medium;writing-mode:lr-tb;fill:#000000;fill-opacity:1;fill-rule:nonzero;stroke:none"
             transform="matrix(1,0,0,-1,8.896,0)"><tspan
               id="tspan126"
               y="0"
               x="0 17.792 26.688 49.792 67.584 85.375999 104.928 112.64 131.008"># Heading</tspan></text>
</g></g></g><g
       id="g130"><g
         clip-path="url(#clipPath136)"
         id="g132"><g
           transform="matrix(1,0,0,-1,725.1144,928.752)"
           id="g138"><path
             id="path140"
             style="fill:none;stroke:#000000;stroke-width:1;stroke-linecap:butt;stroke-linejoin:miter;stroke-miterlimit:4;stroke-dasharray:none;stroke-opacity:1"
             d="M 0,0 H 469.7713 V 182.6595 H 0 Z" /></g></g></g><g
       id="g142"><g
         clip-path="url(#clipPath148)"
         id="g144"><g
           transform="translate(726,908)"
           id="g150"><text
             id="text154"
             style="font-variant:normal;font-weight:500;font-size:20px;font-family:HelveticaNeue;-inkscape-font-specification:HelveticaNeue-Medium;writing-mode:lr-tb;fill:#000000;fill-opacity:1;fill-rule:nonzero;stroke:none"
             transform="matrix(1,0,0,-1,11.12,0)"><tspan
               id="tspan152"
               y="0"
               x="0 14.44 26.299999 37.779999 44.439999 55.560001 67.040001">Content</tspan></text>
</g></g></g><g
       id="g156"><g
         clip-path="url(#clipPath162)"
         id="g158"><path
           id="path164"
           style="fill:#5e5e5e;fill-opacity:1;fill-rule:nonzero;stroke:none"
           d="m 1587.689,928.752 h 230 V 746.0926 h -230 z" /><g
           transform="matrix(1,0,0,-1,1587.689,928.752)"
           id="g166"><path
             id="path168"
             style="fill:none;stroke:#000000;stroke-width:1;stroke-linecap:butt;stroke-linejoin:miter;stroke-miterlimit:4;stroke-dasharray:none;stroke-opacity:1"
             d="M 0,0 H 230 V 182.6595 H 0 Z" /></g></g></g><g
       id="g170"><g
         clip-path="url(#clipPath176)"
         id="g172"><g
           transform="translate(1589,908)"
           id="g178" /></g></g><g
       id="g180"><g
         clip-path="url(#clipPath186)"
         id="g182"><path
           id="path188"
           style="fill:#ffffff;fill-opacity:1;fill-rule:nonzero;stroke:none"
           d="m 1681.701,845.6545 c -0.551,0 -1.099,-0.2656 -1.414,-0.7379 -28.966,-42.6216 -67.777,-67.2234 -67.777,-67.2234 h 158.097 c 0,0 -38.772,24.6018 -67.777,67.2234 -0.315,0.4723 -0.824,0.7379 -1.414,0.7379 z m 2.238,-3.8494 h 15.349 c 0.551,0 1.065,-0.2779 1.34,-0.7502 2.244,-3.542 5.313,-8.1121 7.281,-10.3553 1.771,-2.0071 -0.826,-3.6182 -2.558,-2.0047 -1.535,1.4562 -3.03,3.5838 -3.935,4.8825 -0.984,1.3775 -2.517,0.7896 -2.202,-0.824 0.709,-3.6993 4.174,-14.3671 5.079,-17.0825 0.945,-2.7155 -2.051,-3.4289 -2.877,-1.3037 -1.889,4.8407 -5.072,15.6633 -6.174,20.8582 -0.315,1.6136 -2.411,1.2692 -2.411,-0.3443 0,-1.6136 0.554,-7.3643 1.144,-13.5038 0.275,-2.7155 -3.306,-3.1902 -3.542,0.0369 -0.157,2.2039 -0.349,3.6625 -0.467,5.4729 -0.158,2.1645 -2.128,2.13 -2.718,0.3197 -1.732,-5.3523 -2.681,-7.1306 -3.665,-8.7442 -1.338,-2.2039 -3.857,-0.8658 -2.952,1.1807 1.378,3.0303 4.295,11.2998 5.436,15.6682 0.394,1.4955 -1.065,2.3957 -2.128,0.8609 -1.928,-2.7549 -2.673,-3.938 -5.153,-6.4567 -1.456,-1.4561 -3.699,0.007 -2.361,2.0539 2.283,3.4632 4.523,6.3361 6.137,9.2484 0.275,0.5116 0.826,0.7871 1.377,0.7871 z" /></g></g><g
       id="g190"><g
         clip-path="url(#clipPath196)"
         id="g192"><path
           id="path198"
           style="fill:#ffffff;fill-opacity:1;fill-rule:nonzero;stroke:none"
           d="m 1763.624,906.5636 -5.799,-12.006 c 1.676,0.4358 3.671,0.6914 5.783,0.6915 2.129,0 4.126,-0.2546 5.835,-0.7072 z m 23.435,-9.7064 -12.587,-4.3949 c 1.525,-0.8884 3.097,-2.112 4.589,-3.6038 1.508,-1.5086 2.736,-3.1011 3.625,-4.6097 z m -46.902,-0.0367 4.394,-12.5874 c 0.889,1.5254 2.112,3.1021 3.604,4.5939 1.509,1.5086 3.101,2.7312 4.61,3.6196 z m 23.467,-4.5729 c -10.443,0 -18.942,-8.4985 -18.942,-18.9414 0,-10.4429 8.499,-18.9413 18.942,-18.9413 10.443,0 18.941,8.4984 18.941,18.9413 0,10.4429 -8.498,18.9414 -18.941,18.9414 z m -21.152,-13.0432 -12.022,-5.8144 12.006,-5.7987 c -0.436,1.693 -0.691,3.671 -0.691,5.783 0,2.1288 0.254,4.1204 0.707,5.8301 z m 42.325,0 c 0.435,-1.6929 0.686,-3.6709 0.686,-5.7829 0,-2.1288 -0.25,-4.1204 -0.702,-5.8302 l 12.016,5.8144 z m -2.096,-16.6627 c -0.888,-1.5254 -2.112,-3.0968 -3.604,-4.5887 -1.508,-1.5086 -3.101,-2.7364 -4.609,-3.6248 l 12.603,-4.3739 z m -38.134,-0.0157 -4.374,-12.6031 12.588,4.3896 c -1.526,0.8884 -3.102,2.1121 -4.594,3.6039 -1.509,1.5086 -2.731,3.101 -3.62,4.6096 z m 13.242,-10.2931 5.815,-12.0164 5.798,12.0007 c -1.676,-0.4358 -3.67,-0.6862 -5.783,-0.6862 -2.128,0 -4.12,0.2493 -5.83,0.7019 z" /></g></g><g
       id="g200"><g
         clip-path="url(#clipPath206)"
         id="g202"><g
           transform="matrix(1,0,0,-1,104.8387,934.6184)"
           id="g208"><path
             id="path210"
             style="fill:none;stroke:#000000;stroke-width:1;stroke-linecap:butt;stroke-linejoin:miter;stroke-miterlimit:4;stroke-dasharray:none;stroke-opacity:1"
             d="M 0,0 H 469.7713 V 60.74047 H 0 Z" /></g></g></g><g
       id="g212"><g
         clip-path="url(#clipPath218)"
         id="g214"><g
           transform="translate(291,892)"
           id="g220"><text
             id="text224"
             style="font-variant:normal;font-weight:500;font-size:32px;font-family:HelveticaNeue;-inkscape-font-specification:HelveticaNeue-Medium;writing-mode:lr-tb;fill:#000000;fill-opacity:1;fill-rule:nonzero;stroke:none"
             transform="matrix(1,0,0,-1,8.896,0)"><tspan
               id="tspan222"
               y="0"
               x="0 17.792 26.688 45.664001 53.375999 64.031998 71.744003"># Title</tspan></text>
</g></g></g><g
       id="g226"><g
         clip-path="url(#clipPath232)"
         id="g228"><g
           transform="matrix(1,0,0,-1,104.8387,872.9022)"
           id="g234"><path
             id="path236"
             style="fill:none;stroke:#000000;stroke-width:1;stroke-linecap:butt;stroke-linejoin:miter;stroke-miterlimit:4;stroke-dasharray:none;stroke-opacity:1"
             d="M 0,0 H 469.7713 V 60.74047 H 0 Z" /></g></g></g><g
       id="g238"><g
         clip-path="url(#clipPath244)"
         id="g240"><g
           transform="translate(276,832)"
           id="g246"><text
             id="text250"
             style="font-variant:normal;font-weight:500;font-size:26px;font-family:HelveticaNeue;-inkscape-font-specification:HelveticaNeue-Medium;writing-mode:lr-tb;fill:#000000;fill-opacity:1;fill-rule:nonzero;stroke:none"
             transform="scale(1,-1)"><tspan
               id="tspan248"
               y="0"
               x="0 14.456 28.912001 36.139999 52.987999 67.912003 83.797997 92.456001 98.722 107.38 113.646">## Subtitle</tspan></text>
</g></g></g><g
       id="g252"><g
         clip-path="url(#clipPath258)"
         id="g254"><g
           transform="matrix(1,0,0,-1,104.8387,657.3609)"
           id="g260"><path
             id="path262"
             style="fill:none;stroke:#000000;stroke-width:1;stroke-linecap:butt;stroke-linejoin:miter;stroke-miterlimit:4;stroke-dasharray:none;stroke-opacity:1"
             d="M 0,0 H 469.7713 V 60.74047 H 0 Z" /></g></g></g><g
       id="g264"><g
         clip-path="url(#clipPath270)"
         id="g266"><g
           transform="translate(106,615)"
           id="g272"><text
             id="text276"
             style="font-variant:normal;font-weight:500;font-size:32px;font-family:HelveticaNeue;-inkscape-font-specification:HelveticaNeue-Medium;writing-mode:lr-tb;fill:#000000;fill-opacity:1;fill-rule:nonzero;stroke:none"
             transform="matrix(1,0,0,-1,8.896,0)"><tspan
               id="tspan274"
               y="0"
               x="0 17.792 26.688 49.792 67.584 85.375999 104.928 112.64 131.008"># Heading</tspan></text>
</g></g></g><g
       id="g278"><g
         clip-path="url(#clipPath284)"
         id="g280"><g
           transform="matrix(1,0,0,-1,344.61,585.4254)"
           id="g286"><path
             id="path288"
             style="fill:none;stroke:#000000;stroke-width:1;stroke-linecap:butt;stroke-linejoin:miter;stroke-miterlimit:4;stroke-dasharray:none;stroke-opacity:1"
             d="M 0,0 H 230 V 182.6595 H 0 Z" /></g></g></g><g
       id="g290"><g
         clip-path="url(#clipPath296)"
         id="g292"><g
           transform="translate(346,564)"
           id="g298"><text
             id="text302"
             style="font-variant:normal;font-weight:500;font-size:20px;font-family:HelveticaNeue;-inkscape-font-specification:HelveticaNeue-Medium;writing-mode:lr-tb;fill:#000000;fill-opacity:1;fill-rule:nonzero;stroke:none"
             transform="matrix(1,0,0,-1,11.12,0)"><tspan
               id="tspan300"
               y="0"
               x="0 14.44 26.299999 37.779999 44.439999 55.560001 67.040001">Content</tspan></text>
</g></g></g><g
       id="g304"><g
         clip-path="url(#clipPath310)"
         id="g306"><path
           id="path312"
           style="fill:#5e5e5e;fill-opacity:1;fill-rule:nonzero;stroke:none"
           d="m 104.3387,585.9254 h 230 V 403.266 h -230 z" /><g
           transform="matrix(1,0,0,-1,104.3387,585.9254)"
           id="g314"><path
             id="path316"
             style="fill:none;stroke:#000000;stroke-width:1;stroke-linecap:butt;stroke-linejoin:miter;stroke-miterlimit:4;stroke-dasharray:none;stroke-opacity:1"
             d="M 0,0 H 230 V 182.6595 H 0 Z" /></g></g></g><g
       id="g318"><g
         clip-path="url(#clipPath324)"
         id="g320"><g
           transform="translate(105,565)"
           id="g326" /></g></g><g
       id="g328"><g
         clip-path="url(#clipPath334)"
         id="g330"><path
           id="path336"
           style="fill:#ffffff;fill-opacity:1;fill-rule:nonzero;stroke:none"
           d="m 198.3506,502.8279 c -0.551,0 -1.0995,-0.2656 -1.4143,-0.7379 -28.9654,-42.6215 -67.7769,-67.2234 -67.7769,-67.2234 h 158.0968 c 0,0 -38.7721,24.6019 -67.7768,67.2234 -0.3149,0.4723 -0.824,0.738 -1.4144,0.7379 z m 2.2383,-3.8494 h 15.3485 c 0.551,0 1.0651,-0.2779 1.3405,-0.7502 2.2433,-3.5419 5.313,-8.112 7.2807,-10.3553 1.771,-2.0071 -0.8264,-3.6182 -2.5581,-2.0047 -1.5348,1.4562 -3.0303,3.5838 -3.9355,4.8825 -0.9838,1.3775 -2.5162,0.7896 -2.2014,-0.824 0.7084,-3.6993 4.1741,-14.367 5.0793,-17.0825 0.9445,-2.7155 -2.0514,-3.4289 -2.8779,-1.3037 -1.889,4.8407 -5.0718,15.6634 -6.1738,20.8582 -0.3148,1.6136 -2.4105,1.2692 -2.4105,-0.3443 0,-1.6136 0.5534,-7.3643 1.1438,-13.5037 0.2754,-2.7155 -3.3059,-3.1903 -3.542,0.0369 -0.1574,2.2038 -0.3493,3.6624 -0.4673,5.4728 -0.1575,2.1645 -2.1277,2.1301 -2.718,0.3197 -1.7316,-5.3523 -2.6811,-7.1306 -3.665,-8.7442 -1.338,-2.2039 -3.8568,-0.8658 -2.9516,1.1807 1.3774,3.0303 4.2946,11.2998 5.4359,15.6682 0.3936,1.4955 -1.065,2.3958 -2.1276,0.8609 -1.9284,-2.7548 -2.6737,-3.9379 -5.1531,-6.4567 -1.4561,-1.4561 -3.6993,0.007 -2.3613,2.0539 2.2826,3.4632 4.5234,6.3361 6.137,9.2484 0.2755,0.5116 0.8264,0.7871 1.3774,0.7871 z" /></g></g><g
       id="g338"><g
         clip-path="url(#clipPath344)"
         id="g340"><path
           id="path346"
           style="fill:#ffffff;fill-opacity:1;fill-rule:nonzero;stroke:none"
           d="m 280.2733,563.737 -5.7987,-12.006 c 1.6762,0.4358 3.6709,0.6914 5.7829,0.6915 2.1289,0 4.1256,-0.2546 5.8354,-0.7072 z m 23.4357,-9.7064 -12.5874,-4.3949 c 1.5254,-0.8884 3.0968,-2.112 4.5887,-3.6038 1.5086,-1.5086 2.7364,-3.1011 3.6248,-4.6097 z m -46.9029,-0.0367 4.3948,-12.5874 c 0.8884,1.5254 2.1121,3.1021 3.6039,4.5939 1.5086,1.5086 3.1011,2.7312 4.6097,3.6196 z m 23.4672,-4.5729 c -10.4429,0 -18.9414,-8.4985 -18.9414,-18.9414 0,-10.4429 8.4985,-18.9413 18.9414,-18.9413 10.4428,0 18.9413,8.4984 18.9413,18.9413 0,10.4429 -8.4985,18.9414 -18.9413,18.9414 z m -21.1519,-13.0432 -12.0217,-5.8144 12.006,-5.7987 c -0.4359,1.693 -0.6915,3.671 -0.6915,5.783 0,2.1288 0.2546,4.1204 0.7072,5.8301 z m 42.3247,0 c 0.4358,-1.6929 0.6862,-3.6709 0.6862,-5.7829 0,-2.1288 -0.2493,-4.1204 -0.7019,-5.8302 l 12.0164,5.8144 z m -2.0953,-16.6627 c -0.8884,-1.5254 -2.1121,-3.0968 -3.6039,-4.5887 -1.5086,-1.5086 -3.101,-2.7364 -4.6096,-3.6248 l 12.6031,-4.3739 z m -38.1341,-0.0157 -4.3739,-12.6031 12.5874,4.3896 c -1.5254,0.8884 -3.1021,2.1121 -4.5939,3.6039 -1.5086,1.5086 -2.7312,3.101 -3.6196,4.6096 z m 13.2421,-10.2931 5.8145,-12.0164 5.7987,12.0007 c -1.6763,-0.4358 -3.671,-0.6862 -5.783,-0.6862 -2.1288,0 -4.1203,0.2493 -5.8302,0.7019 z" /></g></g><g
       id="g348"><g
         clip-path="url(#clipPath354)"
         id="g350"><g
           transform="matrix(1,0,0,-1,725.1144,657.3609)"
           id="g356"><path
             id="path358"
             style="fill:none;stroke:#000000;stroke-width:1;stroke-linecap:butt;stroke-linejoin:miter;stroke-miterlimit:4;stroke-dasharray:none;stroke-opacity:1"
             d="M 0,0 H 279 V 60.74047 H 0 Z" /></g></g></g><g
       id="g360"><g
         clip-path="url(#clipPath366)"
         id="g362"><g
           transform="translate(726,615)"
           id="g368"><text
             id="text372"
             style="font-variant:normal;font-weight:500;font-size:32px;font-family:HelveticaNeue;-inkscape-font-specification:HelveticaNeue-Medium;writing-mode:lr-tb;fill:#000000;fill-opacity:1;fill-rule:nonzero;stroke:none"
             transform="matrix(1,0,0,-1,8.896,0)"><tspan
               id="tspan370"
               y="0"
               x="0 17.792 26.688 49.792 67.584 85.375999 104.928 112.64 131.008"># Heading</tspan></text>
</g></g></g><g
       id="g374"><g
         clip-path="url(#clipPath380)"
         id="g376"><g
           transform="matrix(1,0,0,-1,725.1144,585.4254)"
           id="g382"><path
             id="path384"
             style="fill:none;stroke:#000000;stroke-width:1;stroke-linecap:butt;stroke-linejoin:miter;stroke-miterlimit:4;stroke-dasharray:none;stroke-opacity:1"
             d="M 0,0 H 279 V 182.6595 H 0 Z" /></g></g></g><g
       id="g386"><g
         clip-path="url(#clipPath392)"
         id="g388"><g
           transform="translate(726,564)"
           id="g394"><text
             id="text398"
             style="font-variant:normal;font-weight:500;font-size:20px;font-family:HelveticaNeue;-inkscape-font-specification:HelveticaNeue-Medium;writing-mode:lr-tb;fill:#000000;fill-opacity:1;fill-rule:nonzero;stroke:none"
             transform="matrix(1,0,0,-1,11.12,0)"><tspan
               id="tspan396"
               y="0"
               x="0 14.44 26.299999 37.779999 44.439999 55.560001 67.040001">Content</tspan></text>
</g></g></g><g
       id="g400"><g
         clip-path="url(#clipPath406)"
         id="g402"><path
           id="path408"
           style="fill:#5e5e5e;fill-opacity:1;fill-rule:nonzero;stroke:none"
           d="m 1025.892,674.0634 h 191.872 v -288 h -191.872 z" /><g
           transform="matrix(1,0,0,-1,1025.892,674.0634)"
           id="g410"><path
             id="path412"
             style="fill:none;stroke:#000000;stroke-width:1;stroke-linecap:butt;stroke-linejoin:miter;stroke-miterlimit:4;stroke-dasharray:none;stroke-opacity:1"
             d="M 0,0 H 191.872 V 288 H 0 Z" /></g></g></g><g
       id="g414"><g
         clip-path="url(#clipPath420)"
         id="g416"><g
           transform="translate(1027,653)"
           id="g422" /></g></g><g
       id="g424"><g
         clip-path="url(#clipPath430)"
         id="g426"><path
           id="path432"
           style="fill:#ffffff;fill-opacity:1;fill-rule:nonzero;stroke:none"
           d="m 1113.604,567.4332 c -0.46,0 -0.918,-0.2216 -1.18,-0.6156 -24.167,-35.5609 -56.549,-56.0871 -56.549,-56.0871 h 131.906 c 0,0 -32.349,20.5262 -56.549,56.0871 -0.262,0.394 -0.687,0.6156 -1.18,0.6156 z m 1.867,-3.2117 h 12.806 c 0.46,0 0.889,-0.2319 1.118,-0.6259 1.872,-2.9552 4.433,-6.7682 6.075,-8.6399 1.478,-1.6746 -0.69,-3.0188 -2.134,-1.6725 -1.281,1.2149 -2.529,2.9901 -3.284,4.0736 -0.821,1.1493 -2.099,0.6588 -1.837,-0.6875 0.591,-3.0865 3.483,-11.987 4.238,-14.2526 0.788,-2.2657 -1.711,-2.8608 -2.401,-1.0877 -1.576,4.0388 -4.232,13.0685 -5.151,17.4028 -0.263,1.3463 -2.011,1.059 -2.011,-0.2873 0,-1.3462 0.462,-6.1443 0.954,-11.2667 0.23,-2.2656 -2.758,-2.6617 -2.955,0.0308 -0.131,1.8388 -0.291,3.0558 -0.39,4.5662 -0.131,1.806 -1.775,1.7772 -2.268,0.2668 -1.444,-4.4656 -2.237,-5.9494 -3.057,-7.2956 -1.117,-1.8388 -3.218,-0.7224 -2.463,0.985 1.149,2.5284 3.583,9.4279 4.535,13.0727 0.329,1.2477 -0.888,1.9988 -1.775,0.7182 -1.609,-2.2985 -2.231,-3.2856 -4.299,-5.387 -1.215,-1.215 -3.087,0.006 -1.97,1.7136 1.904,2.8895 3.774,5.2865 5.12,7.7163 0.23,0.4269 0.689,0.6567 1.149,0.6567 z" /></g></g><g
       id="g434"><g
         clip-path="url(#clipPath440)"
         id="g436"><path
           id="path442"
           style="fill:#ffffff;fill-opacity:1;fill-rule:nonzero;stroke:none"
           d="m 1180.798,633.9716 -5.799,-12.006 c 1.677,0.4359 3.671,0.6915 5.783,0.6915 2.129,0 4.126,-0.2546 5.836,-0.7072 z m 23.436,-9.7064 -12.588,-4.3948 c 1.526,-0.8884 3.097,-2.1121 4.589,-3.6039 1.509,-1.5086 2.737,-3.101 3.625,-4.6096 z m -46.903,-0.0366 4.395,-12.5875 c 0.888,1.5254 2.112,3.1021 3.604,4.5939 1.508,1.5087 3.101,2.7313 4.609,3.6197 z m 23.467,-4.573 c -10.443,0 -18.941,-8.4985 -18.941,-18.9414 0,-10.4428 8.498,-18.9413 18.941,-18.9413 10.443,0 18.941,8.4985 18.941,18.9413 0,10.4429 -8.498,18.9414 -18.941,18.9414 z m -21.152,-13.0431 -12.021,-5.8144 12.005,-5.7987 c -0.435,1.6929 -0.691,3.6709 -0.691,5.7829 0,2.1288 0.255,4.1204 0.707,5.8302 z m 42.325,0 c 0.436,-1.693 0.686,-3.671 0.686,-5.783 0,-2.1288 -0.249,-4.1204 -0.702,-5.8301 l 12.017,5.8144 z m -2.095,-16.6628 c -0.889,-1.5253 -2.112,-3.0968 -3.604,-4.5886 -1.509,-1.5086 -3.101,-2.7365 -4.61,-3.6249 l 12.603,-4.3739 z m -38.135,-0.0157 -4.373,-12.6031 12.587,4.3896 c -1.525,0.8884 -3.102,2.1121 -4.594,3.6039 -1.509,1.5086 -2.731,3.101 -3.62,4.6096 z m 13.243,-10.2931 5.814,-12.0164 5.799,12.0007 c -1.676,-0.4358 -3.671,-0.6861 -5.783,-0.6862 -2.129,0 -4.121,0.2493 -5.83,0.7019 z" /></g></g><g
       id="g444"><g
         clip-path="url(#clipPath450)"
         id="g446"><path
           id="path452"
           style="fill:#ffffff;fill-opacity:1;fill-rule:nonzero;stroke:none"
           d="m 1148.591,502.1913 c -0.225,0 -0.28,-0.3732 -0.055,-0.3981 3.773,-0.6995 18.062,-1.3537 21.235,-5.3008 2.748,-3.3974 -13.662,-5.2928 -26.902,-10.539 -14.14,-5.6208 -19.411,-15.9131 -14.115,-22.2334 5.296,-6.3202 32.354,-15.017 27.683,-23.6854 -4.672,-8.6685 -22.408,-10.7154 -37.972,-20.8828 C 1102.902,408.9844 1101.4,402.266 1101.4,402.266 h 61.477 c 4.197,3.3225 12.316,8.7919 19.611,13.5133 10.966,7.0947 26.257,19.7837 15.09,30.7505 -16.488,16.1379 -46.394,19.5401 -43.671,27.1594 2.723,7.6193 34.25,12.4859 28.979,22.1787 -3.548,6.4702 -26.7,6.3235 -34.295,6.3234 z m -5.074,-4.5747 c -0.4,0 -0.726,-0.3185 -0.726,-0.7182 0,-0.3997 0.326,-0.726 0.726,-0.726 h 15.793 c 0.399,0 0.718,0.3263 0.718,0.726 0,0.3997 -0.319,0.7182 -0.718,0.7182 z m -4.372,-3.3413 c -0.4,0 -0.726,-0.3263 -0.726,-0.726 0,-0.3997 0.326,-0.726 0.726,-0.726 h 15.793 c 0.4,0 0.718,0.3263 0.718,0.726 0,0.3997 -0.318,0.726 -0.718,0.726 z m 30.227,-15.7382 c -0.524,0 -0.975,-0.4262 -0.975,-0.9758 0,-0.5496 0.426,-0.9759 0.975,-0.9759 h 18.939 c 0.55,0 0.976,0.4263 0.976,0.9759 0,0.5496 -0.426,0.9758 -0.976,0.9758 z m -5.816,-4.6215 c -0.549,0 -0.975,-0.4263 -0.975,-0.9759 0,-0.5496 0.426,-0.9758 0.975,-0.9758 h 18.932 c 0.524,0 0.975,0.4512 0.975,0.9758 0,0.5496 -0.426,0.9759 -0.975,0.9759 z m 5.715,-4.5982 c -0.55,0 -0.968,-0.4262 -0.968,-0.9758 0,-0.5496 0.418,-0.9758 0.968,-0.9758 h 18.939 c 0.55,0 0.976,0.4262 0.976,0.9758 0,0.5496 -0.426,0.9758 -0.976,0.9758 z m -49.057,-20.4144 c -0.675,0 -1.226,-0.5433 -1.226,-1.2178 0,-0.6745 0.551,-1.2256 1.226,-1.2257 h 18.931 c 0.675,0 1.226,0.5512 1.226,1.2257 0,0.6744 -0.551,1.2177 -1.226,1.2178 z m 6.995,-5.9955 c -0.675,0 -1.226,-0.5434 -1.226,-1.2179 0,-0.6745 0.551,-1.2255 1.226,-1.2256 h 18.931 c 0.674,0 1.225,0.5511 1.225,1.2256 0,0.6745 -0.551,1.2178 -1.225,1.2179 z m -6.574,-5.9956 c -0.674,0 -1.225,-0.5433 -1.225,-1.2178 0,-0.6745 0.551,-1.2256 1.225,-1.2256 h 18.939 c 0.675,0 1.218,0.5511 1.218,1.2256 0,0.6745 -0.543,1.2178 -1.218,1.2178 z" /></g></g><g
       id="g454"><g
         clip-path="url(#clipPath460)"
         id="g456"><g
           transform="matrix(1,0,0,-1,1539.683,657.3609)"
           id="g462"><path
             id="path464"
             style="fill:none;stroke:#000000;stroke-width:1;stroke-linecap:butt;stroke-linejoin:miter;stroke-miterlimit:4;stroke-dasharray:none;stroke-opacity:1"
             d="M 0,0 H 279 V 60.74047 H 0 Z" /></g></g></g><g
       id="g466"><g
         clip-path="url(#clipPath472)"
         id="g468"><g
           transform="translate(1541,615)"
           id="g474"><text
             id="text478"
             style="font-variant:normal;font-weight:500;font-size:32px;font-family:HelveticaNeue;-inkscape-font-specification:HelveticaNeue-Medium;writing-mode:lr-tb;fill:#000000;fill-opacity:1;fill-rule:nonzero;stroke:none"
             transform="matrix(1,0,0,-1,8.896,0)"><tspan
               id="tspan476"
               y="0"
               x="0 17.792 26.688 49.792 67.584 85.375999 104.928 112.64 131.008"># Heading</tspan></text>
</g></g></g><g
       id="g480"><g
         clip-path="url(#clipPath486)"
         id="g482"><g
           transform="matrix(1,0,0,-1,1539.683,585.4254)"
           id="g488"><path
             id="path490"
             style="fill:none;stroke:#000000;stroke-width:1;stroke-linecap:butt;stroke-linejoin:miter;stroke-miterlimit:4;stroke-dasharray:none;stroke-opacity:1"
             d="M 0,0 H 279 V 182.6595 H 0 Z" /></g></g></g><g
       id="g492"><g
         clip-path="url(#clipPath498)"
         id="g494"><g
           transform="translate(1541,564)"
           id="g500"><text
             id="text504"
             style="font-variant:normal;font-weight:500;font-size:20px;font-family:HelveticaNeue;-inkscape-font-specification:HelveticaNeue-Medium;writing-mode:lr-tb;fill:#000000;fill-opacity:1;fill-rule:nonzero;stroke:none"
             transform="matrix(1,0,0,-1,11.12,0)"><tspan
               id="tspan502"
               y="0"
               x="0 14.44 26.299999 37.779999 44.439999 55.560001 67.040001">Content</tspan></text>
</g></g></g><g
       id="g506"><g
         clip-path="url(#clipPath512)"
         id="g508"><path
           id="path514"
           style="fill:#5e5e5e;fill-opacity:1;fill-rule:nonzero;stroke:none"
           d="m 1325.863,674.5634 h 191.872 v -288 h -191.872 z" /><g
           transform="matrix(1,0,0,-1,1325.863,674.5634)"
           id="g516"><path
             id="path518"
             style="fill:none;stroke:#000000;stroke-width:1;stroke-linecap:butt;stroke-linejoin:miter;stroke-miterlimit:4;stroke-dasharray:none;stroke-opacity:1"
             d="M 0,0 H 191.872 V 288 H 0 Z" /></g></g></g><g
       id="g520"><g
         clip-path="url(#clipPath526)"
         id="g522"><g
           transform="translate(1327,653)"
           id="g528" /></g></g><g
       id="g530"><g
         clip-path="url(#clipPath536)"
         id="g532"><path
           id="path538"
           style="fill:#ffffff;fill-opacity:1;fill-rule:nonzero;stroke:none"
           d="m 1413.574,567.9332 c -0.459,0 -0.917,-0.2216 -1.18,-0.6156 -24.167,-35.5609 -56.549,-56.0871 -56.549,-56.0871 h 131.907 c 0,0 -32.349,20.5262 -56.549,56.0871 -0.263,0.394 -0.688,0.6156 -1.18,0.6156 z m 1.868,-3.2117 h 12.806 c 0.459,0 0.888,-0.2319 1.118,-0.6259 1.872,-2.9552 4.433,-6.7682 6.075,-8.6399 1.477,-1.6746 -0.69,-3.0188 -2.135,-1.6725 -1.28,1.2149 -2.528,2.9901 -3.283,4.0736 -0.821,1.1493 -2.1,0.6588 -1.837,-0.6875 0.591,-3.0865 3.483,-11.987 4.238,-14.2526 0.788,-2.2657 -1.712,-2.8608 -2.401,-1.0877 -1.576,4.0388 -4.232,13.0685 -5.151,17.4028 -0.263,1.3463 -2.011,1.059 -2.011,-0.2873 0,-1.3462 0.461,-6.1443 0.954,-11.2667 0.23,-2.2656 -2.758,-2.6617 -2.955,0.0308 -0.132,1.8388 -0.292,3.0558 -0.39,4.5662 -0.132,1.806 -1.775,1.7772 -2.268,0.2668 -1.445,-4.4656 -2.237,-5.9494 -3.058,-7.2956 -1.116,-1.8388 -3.218,-0.7224 -2.462,0.985 1.149,2.5284 3.583,9.4279 4.535,13.0727 0.328,1.2477 -0.889,1.9988 -1.775,0.7182 -1.609,-2.2985 -2.231,-3.2856 -4.3,-5.387 -1.214,-1.215 -3.086,0.006 -1.97,1.7136 1.905,2.8895 3.774,5.2865 5.121,7.7163 0.229,0.4269 0.689,0.6567 1.149,0.6567 z" /></g></g><g
       id="g540"><g
         clip-path="url(#clipPath546)"
         id="g542"><path
           id="path548"
           style="fill:#ffffff;fill-opacity:1;fill-rule:nonzero;stroke:none"
           d="m 1480.769,634.4716 -5.799,-12.006 c 1.676,0.4359 3.671,0.6915 5.783,0.6915 2.129,0 4.126,-0.2546 5.835,-0.7072 z m 23.436,-9.7064 -12.588,-4.3948 c 1.525,-0.8884 3.097,-2.1121 4.589,-3.6039 1.508,-1.5086 2.736,-3.101 3.625,-4.6096 z m -46.903,-0.0366 4.394,-12.5875 c 0.889,1.5254 2.113,3.1021 3.604,4.5939 1.509,1.5087 3.101,2.7313 4.61,3.6197 z m 23.467,-4.573 c -10.443,0 -18.942,-8.4985 -18.942,-18.9414 0,-10.4428 8.499,-18.9413 18.942,-18.9413 10.443,0 18.941,8.4985 18.941,18.9413 0,10.4429 -8.498,18.9414 -18.941,18.9414 z m -21.152,-13.0431 -12.022,-5.8144 12.006,-5.7987 c -0.436,1.6929 -0.691,3.6709 -0.691,5.7829 0,2.1288 0.254,4.1204 0.707,5.8302 z m 42.325,0 c 0.435,-1.693 0.686,-3.671 0.686,-5.783 0,-2.1288 -0.25,-4.1204 -0.702,-5.8301 l 12.016,5.8144 z m -2.096,-16.6628 c -0.888,-1.5253 -2.112,-3.0968 -3.604,-4.5886 -1.508,-1.5086 -3.101,-2.7365 -4.609,-3.6249 l 12.603,-4.3739 z m -38.134,-0.0157 -4.374,-12.6031 12.588,4.3896 c -1.526,0.8884 -3.102,2.1121 -4.594,3.6039 -1.509,1.5086 -2.731,3.101 -3.62,4.6096 z m 13.242,-10.2931 5.815,-12.0164 5.798,12.0007 c -1.676,-0.4358 -3.67,-0.6861 -5.783,-0.6862 -2.128,0 -4.12,0.2493 -5.83,0.7019 z" /></g></g><g
       id="g550"><g
         clip-path="url(#clipPath556)"
         id="g552"><path
           id="path558"
           style="fill:#ffffff;fill-opacity:1;fill-rule:nonzero;stroke:none"
           d="m 1448.562,502.6913 c -0.225,0 -0.28,-0.3732 -0.055,-0.3981 3.772,-0.6995 18.062,-1.3537 21.234,-5.3008 2.748,-3.3974 -13.661,-5.2928 -26.901,-10.539 -14.14,-5.6208 -19.411,-15.9131 -14.115,-22.2334 5.296,-6.3202 32.354,-15.017 27.682,-23.6854 -4.671,-8.6685 -22.408,-10.7154 -37.971,-20.8828 -15.564,-10.1674 -17.066,-16.8858 -17.066,-16.8858 h 61.478 c 4.197,3.3225 12.316,8.7919 19.61,13.5133 10.967,7.0947 26.257,19.7837 15.091,30.7505 -16.488,16.1379 -46.394,19.5401 -43.671,27.1594 2.723,7.6193 34.25,12.4859 28.978,22.1787 -3.547,6.4702 -26.7,6.3235 -34.294,6.3234 z m -5.075,-4.5747 c -0.399,0 -0.726,-0.3185 -0.726,-0.7182 0,-0.3997 0.327,-0.726 0.726,-0.726 h 15.793 c 0.4,0 0.719,0.3263 0.719,0.726 0,0.3997 -0.319,0.7182 -0.719,0.7182 z m -4.371,-3.3413 c -0.4,0 -0.726,-0.3263 -0.726,-0.726 0,-0.3997 0.326,-0.726 0.726,-0.726 h 15.793 c 0.399,0 0.718,0.3263 0.718,0.726 0,0.3997 -0.319,0.726 -0.718,0.726 z m 30.227,-15.7382 c -0.524,0 -0.976,-0.4262 -0.976,-0.9758 0,-0.5496 0.427,-0.9759 0.976,-0.9759 h 18.939 c 0.55,0 0.976,0.4263 0.976,0.9759 0,0.5496 -0.426,0.9758 -0.976,0.9758 z m -5.816,-4.6215 c -0.549,0 -0.976,-0.4263 -0.976,-0.9759 0,-0.5496 0.427,-0.9758 0.976,-0.9758 h 18.931 c 0.525,0 0.976,0.4512 0.976,0.9758 0,0.5496 -0.426,0.9759 -0.976,0.9759 z m 5.715,-4.5982 c -0.55,0 -0.968,-0.4262 -0.968,-0.9758 0,-0.5496 0.418,-0.9758 0.968,-0.9758 h 18.939 c 0.549,0 0.975,0.4262 0.975,0.9758 0,0.5496 -0.426,0.9758 -0.975,0.9758 z m -49.057,-20.4144 c -0.675,0 -1.226,-0.5433 -1.226,-1.2178 0,-0.6745 0.551,-1.2256 1.226,-1.2257 h 18.931 c 0.674,0 1.225,0.5512 1.225,1.2257 0,0.6744 -0.551,1.2177 -1.225,1.2178 z m 6.994,-5.9955 c -0.674,0 -1.225,-0.5434 -1.225,-1.2179 0,-0.6745 0.551,-1.2255 1.225,-1.2256 h 18.931 c 0.675,0 1.226,0.5511 1.226,1.2256 0,0.6745 -0.551,1.2178 -1.226,1.2179 z m -6.573,-5.9956 c -0.674,0 -1.225,-0.5433 -1.226,-1.2178 0,-0.6745 0.552,-1.2256 1.226,-1.2256 h 18.939 c 0.675,0 1.218,0.5511 1.218,1.2256 0,0.6745 -0.543,1.2178 -1.218,1.2178 z" /></g></g><g
       id="g560"><g
         clip-path="url(#clipPath566)"
         id="g562"><path
           id="path568"
           style="fill:#5e5e5e;fill-opacity:1;fill-rule:nonzero;stroke:none"
           d="M 84.07674,330.7368 H 596.3719 V 96.18253 H 84.07674 Z" /><g
           transform="matrix(1,0,0,-1,84.07674,330.7368)"
           id="g570"><path
             id="path572"
             style="fill:none;stroke:#000000;stroke-width:1;stroke-linecap:butt;stroke-linejoin:miter;stroke-miterlimit:4;stroke-dasharray:none;stroke-opacity:1"
             d="M 0,0 H 512.2952 V 234.5543 H 0 Z" /></g></g></g><g
       id="g574"><g
         clip-path="url(#clipPath580)"
         id="g576"><g
           transform="translate(85,310)"
           id="g582" /></g></g><g
       id="g584"><g
         clip-path="url(#clipPath590)"
         id="g586"><path
           id="path592"
           style="fill:#ffffff;fill-opacity:1;fill-rule:nonzero;stroke:none"
           d="m 204.8453,291.2591 c -0.8101,0 -1.6166,-0.3906 -2.0795,-1.085 -42.5886,-62.6678 -99.6544,-98.8406 -99.6544,-98.8406 H 335.566 c 0,0 -57.0079,36.1728 -99.6544,98.8406 -0.4629,0.6944 -1.2115,1.085 -2.0795,1.085 z m 3.2911,-5.6599 h 22.5674 c 0.8101,0 1.566,-0.4087 1.971,-1.1031 3.2983,-5.2078 7.8117,-11.9274 10.705,-15.2257 2.6039,-2.9511 -1.2151,-5.32 -3.7612,-2.9475 -2.2567,2.141 -4.4556,5.2694 -5.7865,7.1789 -1.4466,2.0252 -3.6998,1.1609 -3.2368,-1.2116 1.0415,-5.4393 6.1373,-21.1243 7.4682,-25.117 1.3887,-3.9927 -3.0163,-5.0415 -4.2314,-1.9168 -2.7775,7.1174 -7.4574,23.0303 -9.0776,30.6685 -0.4629,2.3724 -3.5443,1.8661 -3.5442,-0.5064 0,-2.3724 0.8137,-10.8279 1.6817,-19.8549 0.405,-3.9927 -4.8607,-4.6907 -5.2079,0.0543 -0.2314,3.2404 -0.5135,5.385 -0.6871,8.0468 -0.2315,3.1826 -3.1284,3.132 -3.9963,0.4702 -2.5461,-7.8697 -3.9421,-10.4844 -5.3887,-12.8569 -1.9674,-3.2405 -5.6708,-1.273 -4.3399,1.7359 2.0253,4.4557 6.3146,16.6146 7.9926,23.0375 0.5787,2.1989 -1.566,3.5226 -3.1283,1.2658 -2.8354,-4.0505 -3.9312,-5.79 -7.5767,-9.4934 -2.141,-2.141 -5.4393,0.0108 -3.4719,3.0198 3.3562,5.0921 6.6509,9.3163 9.0233,13.5983 0.4051,0.7522 1.2151,1.1573 2.0253,1.1573 z" /><path
           id="path594"
           style="fill:#ffffff;fill-opacity:1;fill-rule:nonzero;stroke:none"
           d="m 508.2468,290.645 -5.7987,-12.006 c 1.6762,0.4359 3.6709,0.6915 5.783,0.6915 2.1288,0 4.1255,-0.2546 5.8353,-0.7072 z m 23.4357,-9.7064 -12.5874,-4.3948 c 1.5254,-0.8884 3.0968,-2.1121 4.5887,-3.6039 1.5086,-1.5086 2.7364,-3.101 3.6248,-4.6096 z m -46.9029,-0.0366 4.3949,-12.5875 c 0.8884,1.5254 2.112,3.1021 3.6039,4.594 1.5086,1.5086 3.101,2.7312 4.6096,3.6196 z m 23.4672,-4.573 c -10.4429,0 -18.9414,-8.4985 -18.9414,-18.9414 0,-10.4428 8.4985,-18.9413 18.9414,-18.9413 10.4429,0 18.9413,8.4985 18.9413,18.9413 0,10.4429 -8.4984,18.9414 -18.9413,18.9414 z m -21.1519,-13.0431 -12.0217,-5.8144 12.006,-5.7987 c -0.4358,1.6929 -0.6914,3.6709 -0.6915,5.7829 0,2.1288 0.2546,4.1204 0.7072,5.8302 z m 42.3247,0 c 0.4358,-1.693 0.6862,-3.6709 0.6862,-5.783 0,-2.1288 -0.2493,-4.1204 -0.7019,-5.8301 l 12.0164,5.8144 z m -2.0953,-16.6628 c -0.8884,-1.5253 -2.112,-3.0968 -3.6039,-4.5886 -1.5086,-1.5086 -3.101,-2.7365 -4.6096,-3.6249 l 12.6031,-4.3739 z m -38.1341,-0.0157 -4.3739,-12.6031 12.5874,4.3896 c -1.5254,0.8884 -3.1021,2.1121 -4.5939,3.6039 -1.5086,1.5086 -2.7312,3.101 -3.6196,4.6096 z m 13.2422,-10.2931 5.8144,-12.0164 5.7987,12.0007 c -1.6763,-0.4358 -3.671,-0.6861 -5.783,-0.6862 -2.1288,0 -4.1203,0.2493 -5.8301,0.7019 z" /><path
           id="path596"
           style="fill:#ffffff;fill-opacity:1;fill-rule:nonzero;stroke:none"
           d="m 388.7671,206.724 c -0.2248,0 -0.2796,-0.3732 -0.0547,-0.3982 3.7722,-0.6995 18.0615,-1.3536 21.2342,-5.3007 2.7479,-3.3975 -13.6617,-5.2929 -26.9018,-10.539 -14.1394,-5.6208 -19.4105,-15.9131 -14.1145,-22.2334 5.2961,-6.3203 32.3539,-15.017 27.6825,-23.6854 -4.6715,-8.6686 -22.4082,-10.7154 -37.9716,-20.8829 -15.5634,-10.1674 -17.0654,-16.8857 -17.0654,-16.8858 h 61.4775 c 4.1968,3.3225 12.3159,8.792 19.6103,13.5133 10.9668,7.0948 26.2571,19.7838 15.0903,30.7505 -16.4877,16.138 -46.3935,19.5401 -43.6705,27.1594 2.723,7.6193 34.2494,12.486 28.9784,22.1788 -3.5474,6.4701 -26.7003,6.3234 -34.2947,6.3234 z m -5.0744,-4.5748 c -0.3997,0 -0.726,-0.3185 -0.726,-0.7182 0,-0.3997 0.3264,-0.726 0.726,-0.726 h 15.7929 c 0.3997,0 0.7182,0.3263 0.7182,0.726 0,0.3997 -0.3184,0.7182 -0.7182,0.7182 z m -4.3717,-3.3412 c -0.3997,0 -0.726,-0.3263 -0.726,-0.726 0,-0.3997 0.3263,-0.726 0.726,-0.726 h 15.7929 c 0.3997,0 0.7182,0.3263 0.7182,0.726 0,0.3997 -0.3185,0.726 -0.7182,0.726 z m 30.2274,-15.7382 c -0.5246,0 -0.9758,-0.4263 -0.9758,-0.9759 0,-0.5496 0.4263,-0.9758 0.9758,-0.9758 h 18.939 c 0.5496,0 0.9758,0.4262 0.9758,0.9758 0,0.5496 -0.4262,0.9759 -0.9758,0.9759 z m -5.8159,-4.6216 c -0.5496,0 -0.9758,-0.4262 -0.9759,-0.9758 0,-0.5496 0.4263,-0.9759 0.9759,-0.9759 h 18.9311 c 0.5246,0 0.9759,0.4513 0.9759,0.9759 0,0.5496 -0.4263,0.9758 -0.9759,0.9758 z m 5.7144,-4.5981 c -0.5495,0 -0.9679,-0.4263 -0.968,-0.9759 0,-0.5495 0.4184,-0.9758 0.968,-0.9758 h 18.939 c 0.5496,0 0.9758,0.4263 0.9759,0.9758 0,0.5496 -0.4263,0.9759 -0.9759,0.9759 z m -49.0571,-20.4145 c -0.6745,0 -1.2255,-0.5433 -1.2256,-1.2178 0,-0.6745 0.5511,-1.2256 1.2256,-1.2256 h 18.9312 c 0.6745,0 1.2256,0.5511 1.2257,1.2256 0,0.6745 -0.5512,1.2178 -1.2257,1.2178 z m 6.9948,-5.9955 c -0.6745,0 -1.2255,-0.5433 -1.2256,-1.2178 0,-0.6745 0.5511,-1.2256 1.2256,-1.2257 h 18.9312 c 0.6745,0 1.2255,0.5512 1.2256,1.2257 0,0.6745 -0.5511,1.2177 -1.2256,1.2178 z m -6.5732,-5.9955 c -0.6745,0 -1.2256,-0.5433 -1.2256,-1.2178 0,-0.6745 0.5511,-1.2256 1.2256,-1.2257 h 18.939 c 0.6745,0 1.2178,0.5512 1.2178,1.2257 0,0.6745 -0.5433,1.2177 -1.2178,1.2178 z" /><g
           transform="matrix(1,0,0,-1,83.7243,96.52917)"
           id="g598"><path
             id="path600"
             style="fill:none;stroke:#000000;stroke-width:1;stroke-linecap:butt;stroke-linejoin:miter;stroke-miterlimit:4;stroke-dasharray:none;stroke-opacity:1"
             d="M 0,0 H 512.0001 V 52.85416 H 0 Z" /></g></g></g><g
       id="g602"><g
         clip-path="url(#clipPath608)"
         id="g604"><g
           transform="translate(297,62)"
           id="g610"><text
             id="text614"
             style="font-variant:normal;font-weight:500;font-size:20px;font-family:HelveticaNeue;-inkscape-font-specification:HelveticaNeue-Medium;writing-mode:lr-tb;fill:#000000;fill-opacity:1;fill-rule:nonzero;stroke:none"
             transform="matrix(1,0,0,-1,11.12,0)"><tspan
               id="tspan612"
               y="0"
               x="0 14.44 26.299999 37.779999 44.439999 55.560001 67.040001">Content</tspan></text>
</g></g></g><g
       id="g616"><g
         clip-path="url(#clipPath622)"
         id="g618"><g
           transform="matrix(1,0,0,-1,726.3783,313.0342)"
           id="g624"><path
             id="path626"
             style="fill:none;stroke:#000000;stroke-width:1;stroke-linecap:butt;stroke-linejoin:miter;stroke-miterlimit:4;stroke-dasharray:none;stroke-opacity:1"
             d="M 0,0 H 469.7713 V 60.74047 H 0 Z" /></g></g></g><g
       id="g628"><g
         clip-path="url(#clipPath634)"
         id="g630"><g
           transform="translate(727,271)"
           id="g636"><text
             id="text640"
             style="font-variant:normal;font-weight:500;font-size:32px;font-family:HelveticaNeue;-inkscape-font-specification:HelveticaNeue-Medium;writing-mode:lr-tb;fill:#000000;fill-opacity:1;fill-rule:nonzero;stroke:none"
             transform="matrix(1,0,0,-1,8.896,0)"><tspan
               id="tspan638"
               y="0"
               x="0 17.792 26.688 49.792 67.584 85.375999 104.928 112.64 131.008"># Heading</tspan></text>
</g></g></g><g
       id="g642"><g
         clip-path="url(#clipPath648)"
         id="g644"><g
           transform="matrix(1,0,0,-1,726.3783,241.5988)"
           id="g650"><path
             id="path652"
             style="fill:none;stroke:#000000;stroke-width:1;stroke-linecap:butt;stroke-linejoin:miter;stroke-miterlimit:4;stroke-dasharray:none;stroke-opacity:1"
             d="M 0,0 H 230 V 182.6595 H 0 Z" /></g></g></g><g
       id="g654"><g
         clip-path="url(#clipPath660)"
         id="g656"><g
           transform="translate(727,221)"
           id="g662"><text
             id="text666"
             style="font-variant:normal;font-weight:500;font-size:20px;font-family:HelveticaNeue;-inkscape-font-specification:HelveticaNeue-Medium;writing-mode:lr-tb;fill:#000000;fill-opacity:1;fill-rule:nonzero;stroke:none"
             transform="matrix(1,0,0,-1,11.12,0)"><tspan
               id="tspan664"
               y="0"
               x="0 14.44 26.299999 37.779999 44.439999 55.560001 67.040001">Content</tspan></text>
</g></g></g><g
       id="g668"><g
         clip-path="url(#clipPath674)"
         id="g670"><g
           transform="matrix(1,0,0,-1,966.1495,242.0988)"
           id="g676"><path
             id="path678"
             style="fill:none;stroke:#000000;stroke-width:1;stroke-linecap:butt;stroke-linejoin:miter;stroke-miterlimit:4;stroke-dasharray:none;stroke-opacity:1"
             d="M 0,0 H 230 V 182.6595 H 0 Z" /></g></g></g><g
       id="g680"><g
         clip-path="url(#clipPath686)"
         id="g682"><g
           transform="translate(967,221)"
           id="g688"><text
             id="text692"
             style="font-variant:normal;font-weight:500;font-size:20px;font-family:HelveticaNeue;-inkscape-font-specification:HelveticaNeue-Medium;writing-mode:lr-tb;fill:#000000;fill-opacity:1;fill-rule:nonzero;stroke:none"
             transform="matrix(1,0,0,-1,11.12,0)"><tspan
               id="tspan690"
               y="0"
               x="0 14.44 26.299999 37.779999 44.439999 55.560001 67.040001">Content</tspan></text>
</g></g></g><g
       id="g694"><g
         clip-path="url(#clipPath700)"
         id="g696"><g
           transform="matrix(1,0,0,-1,1347.918,314.0342)"
           id="g702"><path
             id="path704"
             style="fill:none;stroke:#000000;stroke-width:1;stroke-linecap:butt;stroke-linejoin:miter;stroke-miterlimit:4;stroke-dasharray:none;stroke-opacity:1"
             d="M 0,0 H 469.7713 V 60.74047 H 0 Z" /></g></g></g><g
       id="g706"><g
         clip-path="url(#clipPath712)"
         id="g708"><g
           transform="translate(1349,272)"
           id="g714"><text
             id="text718"
             style="font-variant:normal;font-weight:500;font-size:32px;font-family:HelveticaNeue;-inkscape-font-specification:HelveticaNeue-Medium;writing-mode:lr-tb;fill:#000000;fill-opacity:1;fill-rule:nonzero;stroke:none"
             transform="matrix(1,0,0,-1,8.896,0)"><tspan
               id="tspan716"
               y="0"
               x="0 17.792 26.688 49.792 67.584 85.375999 104.928 112.64 131.008"># Heading</tspan></text>
</g></g></g><g
       id="g720"><g
         clip-path="url(#clipPath726)"
         id="g722"><g
           transform="matrix(1,0,0,-1,1347.918,243.0988)"
           id="g728"><path
             id="path730"
             style="fill:none;stroke:#000000;stroke-width:1;stroke-linecap:butt;stroke-linejoin:miter;stroke-miterlimit:4;stroke-dasharray:none;stroke-opacity:1"
             d="M 0,0 H 150 V 182.6595 H 0 Z" /></g></g></g><g
       id="g732"><g
         clip-path="url(#clipPath738)"
         id="g734"><g
           transform="translate(1349,222)"
           id="g740"><text
             id="text744"
             style="font-variant:normal;font-weight:500;font-size:20px;font-family:HelveticaNeue;-inkscape-font-specification:HelveticaNeue-Medium;writing-mode:lr-tb;fill:#000000;fill-opacity:1;fill-rule:nonzero;stroke:none"
             transform="matrix(1,0,0,-1,11.12,0)"><tspan
               id="tspan742"
               y="0"
               x="0 14.44 26.299999 37.779999 44.439999 55.560001 67.040001">Content</tspan></text>
</g></g></g><g
       id="g746"><g
         clip-path="url(#clipPath752)"
         id="g748"><g
           transform="matrix(1,0,0,-1,1507.803,243.0988)"
           id="g754"><path
             id="path756"
             style="fill:none;stroke:#000000;stroke-width:1;stroke-linecap:butt;stroke-linejoin:miter;stroke-miterlimit:4;stroke-dasharray:none;stroke-opacity:1"
             d="M 0,0 H 150 V 182.6595 H 0 Z" /></g></g></g><g
       id="g758"><g
         clip-path="url(#clipPath764)"
         id="g760"><g
           transform="translate(1509,222)"
           id="g766"><text
             id="text770"
             style="font-variant:normal;font-weight:500;font-size:20px;font-family:HelveticaNeue;-inkscape-font-specification:HelveticaNeue-Medium;writing-mode:lr-tb;fill:#000000;fill-opacity:1;fill-rule:nonzero;stroke:none"
             transform="matrix(1,0,0,-1,11.12,0)"><tspan
               id="tspan768"
               y="0"
               x="0 14.44 26.299999 37.779999 44.439999 55.560001 67.040001">Content</tspan></text>
</g></g></g><g
       id="g772"><g
         clip-path="url(#clipPath778)"
         id="g774"><g
           transform="matrix(1,0,0,-1,1667.689,243.0988)"
           id="g780"><path
             id="path782"
             style="fill:none;stroke:#000000;stroke-width:1;stroke-linecap:butt;stroke-linejoin:miter;stroke-miterlimit:4;stroke-dasharray:none;stroke-opacity:1"
             d="M 0,0 H 150 V 182.6595 H 0 Z" /></g></g></g><g
       id="g784"><g
         clip-path="url(#clipPath790)"
         id="g786"><g
           transform="translate(1669,222)"
           id="g792"><text
             id="text796"
             style="font-variant:normal;font-weight:500;font-size:20px;font-family:HelveticaNeue;-inkscape-font-specification:HelveticaNeue-Medium;writing-mode:lr-tb;fill:#000000;fill-opacity:1;fill-rule:nonzero;stroke:none"
             transform="matrix(1,0,0,-1,11.12,0)"><tspan
               id="tspan794"
               y="0"
               x="0 14.44 26.299999 37.779999 44.439999 55.560001 67.040001">Content</tspan></text>
</g></g></g></g></svg>